<?xml version="1.0" encoding="utf-8"?>
<!-- Generator: Adobe Illustrator 16.0.4, SVG Export Plug-In . SVG Version: 6.00 Build 0)  -->
<!DOCTYPE svg PUBLIC "-//W3C//DTD SVG 1.1//EN" "http://www.w3.org/Graphics/SVG/1.1/DTD/svg11.dtd">
<svg version="1.1" id="Layer_1" xmlns="http://www.w3.org/2000/svg" xmlns:xlink="http://www.w3.org/1999/xlink" x="0px" y="0px"
	 width="1000px" height="5759px" viewBox="0 0 1000 5759" enable-background="new 0 0 1000 5759" xml:space="preserve">
<rect fill="#686868" width="1000" height="5759"/>
<rect x="517.134" y="154" fill="#FFFFFF" width="2.594" height="0"/>
<g>
	<rect x="270.708" y="156.096" fill="none" width="88.18" height="20.472"/>
	<text transform="matrix(1 0 0 1 270.7085 174.5781)" font-family="'FiraMonoOT'" font-size="24.6433" letter-spacing="4">WORK</text>
</g>
<g>
	<rect x="243.562" y="666" fill="#FFFFFF" width="2.447" height="0"/>
	<rect x="116" y="120" fill="#FFFFFF" width="766" height="574"/>
	<rect x="116" y="219" width="94" height="477"/>
	<linearGradient id="SVGID_1_" gradientUnits="userSpaceOnUse" x1="210" y1="457.5" x2="304" y2="457.5">
		<stop  offset="0" style="stop-color:#FFA694"/>
		<stop  offset="0.0077" style="stop-color:#FFA794"/>
		<stop  offset="0.3283" style="stop-color:#FFBA91"/>
		<stop  offset="0.6561" style="stop-color:#FFC58F"/>
		<stop  offset="1" style="stop-color:#FFC98E"/>
	</linearGradient>
	<rect x="210" y="219" fill="url(#SVGID_1_)" width="94" height="477"/>
	<g>
		<path fill="#449FDB" d="M399,310.313V220h-95v161.404C320,342.894,356,314.796,399,310.313z"/>
		<path fill="#449FDB" d="M304,468.656V698h95V539.749C356,535.265,320,507.167,304,468.656z"/>
		<path fill="#FCEE21" d="M304,381.404v87.252c16,38.511,52,66.608,95,71.093V310.313C356,314.796,320,342.894,304,381.404z"/>
	</g>
	<rect x="399" y="220" width="95" height="477"/>
	<rect x="399" y="220" fill="#4D4D4D" width="95" height="54"/>
	<rect x="399" y="274" fill="#666666" width="95" height="55"/>
	<rect x="399" y="329" fill="#808080" width="95" height="55"/>
	<rect x="399" y="384" fill="#999999" width="95" height="55"/>
	<rect x="399" y="439" fill="#B3B3B3" width="95" height="54"/>
	<rect x="399" y="493" fill="#CCCCCC" width="95" height="55"/>
	<rect x="399" y="548" fill="#E6E6E6" width="95" height="54"/>
	<rect x="399" y="643" fill="#F2F2F2" width="95" height="55"/>
	<rect x="399" y="602" fill="#F2F2F2" width="95" height="55"/>
	<rect x="494" y="220" width="92" height="479"/>
	<rect x="494" y="220" fill="#CCCCCC" width="92" height="479"/>
	<rect x="569" y="220" width="17" height="479"/>
</g>
<rect x="131.919" y="137.938" fill="none" width="66.148" height="57.068"/>
<text transform="matrix(1 0 0 1 131.9194 149.6104)"><tspan x="0" y="0" font-family="'FiraMonoOT'" font-size="15.5642" letter-spacing="2">Miria</tspan><tspan x="56.81" y="0" font-family="'FiraMonoOT'" font-size="15.5642">m </tspan><tspan x="0" y="18.678" font-family="'FiraMonoOT'" font-size="15.5642">Kenned</tspan><tspan x="56.81" y="18.678" font-family="'FiraMonoOT'" font-size="15.5642">y </tspan><tspan x="0" y="37.354" font-family="'FiraMonoOT'" font-size="15.5642" letter-spacing="2">Nadle</tspan><tspan x="56.81" y="37.354" font-family="'FiraMonoOT'" font-size="15.5642">r</tspan></text>
<g>
	<rect x="399.105" y="156.235" fill="none" width="101.15" height="20.472"/>
	<text transform="matrix(1 0 0 1 399.105 174.7178)" font-family="'FiraMonoOT'" font-size="24.6433" letter-spacing="4">ABOUT</text>
</g>
<g>
	<rect x="536.921" y="156.235" fill="none" width="137.467" height="20.472"/>
	<text transform="matrix(1 0 0 1 536.9214 174.7178)" font-family="'FiraMonoOT'" font-size="24.6433" letter-spacing="4">CONTACT</text>
</g>
<g>
	<rect x="117" y="1364" fill="#FFFFFF" width="767" height="573"/>
	<rect x="147.484" y="1391.872" fill="none" width="301.556" height="31.269"/>
	<text transform="matrix(1 0 0 1 147.4839 1400.7314)" fill="#E74C3C" font-family="'FiraMonoOT-Bold'" font-size="11.6732">Miriam Kennedy Nadler</text>
	<rect x="147.484" y="1425.838" fill="none" width="301.556" height="51.623"/>
	<text transform="matrix(1 0 0 1 147.4839 1434.5928)"><tspan x="0" y="0" font-family="'FiraMonoOT'" font-size="11.6732">Web Design + Web Development </tspan><tspan x="0" y="31.128" font-family="'FiraMonoOT'" font-size="11.6732">Brooklyn, NY</tspan></text>
	<rect x="403.969" y="1392.292" fill="none" width="439.667" height="81.708"/>
	<text transform="matrix(1 0 0 1 409.4004 1401.0469)"><tspan x="0" y="0" font-family="'FiraMonoOT'" font-size="11.6732">I make websites for people: the end users and the site owners. </tspan><tspan x="84.046" y="31.129" fill="#3498DB" font-family="'FiraMonoOT'" font-size="11.6732">See my work</tspan><tspan x="161.089" y="31.129" font-family="'FiraMonoOT'" font-size="11.6732">, </tspan><tspan x="175.097" y="31.129" fill="#2980B9" font-family="'FiraMonoOT'" font-size="11.6732">learn more about me</tspan><tspan x="308.171" y="31.129" font-family="'FiraMonoOT'" font-size="11.6732">, or </tspan><tspan x="343.19" y="31.129" fill="#2C3E50" font-family="'FiraMonoOT'" font-size="11.6732">get in touch</tspan><tspan x="427.237" y="31.129" font-family="'FiraMonoOT'" font-size="11.6732">.</tspan></text>
	<rect x="456.272" y="1941" fill="#FFFFFF" width="2.447" height="0"/>
	<linearGradient id="SVGID_2_" gradientUnits="userSpaceOnUse" x1="117" y1="1721.5" x2="345" y2="1721.5">
		<stop  offset="0" style="stop-color:#FFA694"/>
		<stop  offset="0.0077" style="stop-color:#FFA794"/>
		<stop  offset="0.3283" style="stop-color:#FFBA91"/>
		<stop  offset="0.6561" style="stop-color:#FFC58F"/>
		<stop  offset="1" style="stop-color:#FFC98E"/>
	</linearGradient>
	<rect x="117" y="1505" fill="url(#SVGID_2_)" width="228" height="433"/>
	<rect x="156.879" y="1527.072" fill="none" width="172.17" height="91.436"/>
	<text transform="matrix(1 0 0 1 237.9995 1535.8271)" fill="#333333" font-family="'FiraMonoOT'" font-size="11.6732">blazing audit</text>
	<rect x="345" y="1505" fill="#449FDB" width="231" height="433"/>
	<circle fill="#FCEE21" cx="472.362" cy="1712.861" r="94.353"/>
	<rect x="386.277" y="1527.072" fill="none" width="172.17" height="91.436"/>
	<text transform="matrix(1 0 0 1 439.3823 1535.8271)" fill="#333333" font-family="'FiraMonoOT'" font-size="11.6732">how much sunlight</text>
	<rect x="574" y="1554" width="179" height="384"/>
	<rect x="574" y="1740" fill="#999999" width="179" height="51"/>
	<rect x="574" y="1691" fill="#B3B3B3" width="179" height="49"/>
	<rect x="574" y="1641" fill="#CCCCCC" width="179" height="50"/>
	<rect x="574" y="1592" fill="#E6E6E6" width="179" height="49"/>
	<rect x="574" y="1505" fill="#E6E6E6" width="179" height="49"/>
	<rect x="574" y="1542" fill="#E6E6E6" width="179" height="51"/>
	<rect x="566.715" y="1527.072" fill="none" width="172.17" height="91.436"/>
	<text transform="matrix(1 0 0 1 654.8403 1535.8271)" fill="#333333" font-family="'FiraMonoOT'" font-size="11.6732">modular tone</text>
</g>
<g>
	<rect x="166.308" y="767.479" fill="none" width="88.18" height="20.473"/>
	<text transform="matrix(1 0 0 1 166.3076 785.0986)" font-family="'Tenso-Regular'" font-size="24.6433" letter-spacing="4">WORK</text>
</g>
<rect x="168" y="795" width="86" height="2"/>
<g>
	<rect x="117" y="744" fill="#FFFFFF" width="767" height="574"/>
	<rect x="167" y="818" width="86" height="435"/>
	<linearGradient id="SVGID_3_" gradientUnits="userSpaceOnUse" x1="296" y1="1035.5" x2="380" y2="1035.5">
		<stop  offset="0" style="stop-color:#FFA694"/>
		<stop  offset="0.0077" style="stop-color:#FFA794"/>
		<stop  offset="0.3283" style="stop-color:#FFBA91"/>
		<stop  offset="0.6561" style="stop-color:#FFC58F"/>
		<stop  offset="1" style="stop-color:#FFC98E"/>
	</linearGradient>
	<rect x="296" y="818" fill="url(#SVGID_3_)" width="84" height="435"/>
	<rect x="295.992" y="787.951" fill="none" width="247.082" height="98.572"/>
	<text transform="matrix(1 0 0 1 295.9922 794.4424)" font-family="'Tenso-Regular'" font-size="9.0791">blazingaudit.com</text>
	<g>
		<path fill="#449FDB" d="M514,900.569V818h-86v147.318C442,930.243,475,904.652,514,900.569z"/>
		<path fill="#449FDB" d="M428,1044.786V1253h86v-143.465C475,1105.452,442,1079.861,428,1044.786z"/>
		<path fill="#FCEE21" d="M428,965.318v79.468c14,35.075,47,60.666,86,64.749V900.569C475,904.652,442,930.243,428,965.318z"/>
	</g>
	<rect x="427.64" y="787.951" fill="none" width="136.187" height="80.414"/>
	<text transform="matrix(1 0 0 1 427.6396 794.4424)" font-family="'Tenso-Regular'" font-size="9.0791">howmuchsunlight.com</text>
	<rect x="563" y="818" width="86" height="435"/>
	<rect x="563.826" y="787.951" fill="none" width="154.994" height="91.439"/>
	<text transform="matrix(1 0 0 1 563.8262 794.4424)" font-family="'Tenso-Regular'" font-size="9.0791">modulartone.com</text>
	<rect x="563" y="818" fill="#4D4D4D" width="86" height="50"/>
	<rect x="563" y="868" fill="#666666" width="86" height="50"/>
	<rect x="563" y="918" fill="#808080" width="86" height="50"/>
	<rect x="563" y="968" fill="#999999" width="86" height="50"/>
	<rect x="563" y="1018" fill="#B3B3B3" width="86" height="50"/>
	<rect x="563" y="1068" fill="#CCCCCC" width="86" height="50"/>
	<rect x="563" y="1117" fill="#E6E6E6" width="86" height="50"/>
	<rect x="563" y="1204" fill="#F2F2F2" width="86" height="50"/>
	<rect x="563" y="1166" fill="#F2F2F2" width="86" height="50"/>
	<rect x="695" y="818" width="83" height="435"/>
	<rect x="694.825" y="787.951" fill="none" width="126.459" height="71.984"/>
	<text transform="matrix(1 0 0 1 694.8247 794.4424)" font-family="'Tenso-Regular'" font-size="9.0791">mkopas.net</text>
	<rect x="695" y="818" fill="#CCCCCC" width="83" height="435"/>
	<rect x="763" y="818" width="15" height="435"/>
</g>
<g>
	<rect x="120" y="1985" fill="#FF8273" width="767" height="566"/>
	<rect x="120" y="2238" fill="#E6E6E6" width="767" height="318"/>
	<rect x="158.5" y="2538.5" fill="none" stroke="#EF6F56" stroke-miterlimit="10" width="239" height="17"/>
	<rect x="314.651" y="2028.172" fill="none" width="345.405" height="114.602"/>
	<text transform="matrix(1 0 0 1 314.6514 2036.8154)"><tspan x="0" y="0" font-family="'FiraMonoOT'" font-size="11.5242">I am a web designer and web developer based in </tspan><tspan x="0" y="13.829" font-family="'FiraMonoOT'" font-size="11.5242">Brooklyn, NY. I write code in HTML5, CSS3, Sass, </tspan><tspan x="0" y="27.657" font-family="'FiraMonoOT'" font-size="11.5242">JavaScript, and jQuery.</tspan></text>
	<rect x="157.954" y="2028.172" fill-rule="evenodd" clip-rule="evenodd" fill="none" width="292.586" height="80.67"/>
	<text transform="matrix(1 0 0 1 157.9541 2045.665)"><tspan x="0" y="0" font-family="'FiraMonoOT-Bold'" font-size="23.0484">MIRIAM </tspan><tspan x="0" y="27.658" font-family="'FiraMonoOT-Bold'" font-size="23.0484">KENNEDY </tspan><tspan x="0" y="55.316" font-family="'FiraMonoOT-Bold'" font-size="23.0484">NADLER</tspan></text>
	<g>
		<rect x="314.491" y="2085.287" fill="none" width="293.227" height="76.188"/>
		<text transform="matrix(1 0 0 1 314.4912 2093.9307)" font-family="'FiraMonoOT'" font-size="11.5242">Feel free to email me with any inquiries.</text>
	</g>
	<rect x="157.5" y="2264.5" fill="none" stroke="#EF6F56" stroke-miterlimit="10" width="239" height="251"/>
	<linearGradient id="SVGID_4_" gradientUnits="userSpaceOnUse" x1="161" y1="2390" x2="393" y2="2390">
		<stop  offset="0" style="stop-color:#FFA694"/>
		<stop  offset="0.0077" style="stop-color:#FFA794"/>
		<stop  offset="0.3283" style="stop-color:#FFBA91"/>
		<stop  offset="0.6561" style="stop-color:#FFC58F"/>
		<stop  offset="1" style="stop-color:#FFC98E"/>
	</linearGradient>
	<rect x="161" y="2268" fill="url(#SVGID_4_)" width="232" height="244"/>
	<g>
		<rect x="183.883" y="2298.351" fill="none" width="188.229" height="40.335"/>
		<text transform="matrix(1 0 0 1 183.8828 2307.0977)" font-family="'FiraMonoOT-Bold'" font-size="11.5242">Blazing Audit</text>
	</g>
	<rect x="405" y="2100" width="56" height="2"/>
	<rect x="430.693" y="2268.26" fill="none" width="256.4" height="143.085"/>
	<text transform="matrix(1 0 0 1 430.6934 2276.9033)"><tspan x="0" y="0" font-family="'FiraMonoOT'" font-size="11.5242">A custom WordPress site designed and </tspan><tspan x="0" y="13.829" font-family="'FiraMonoOT'" font-size="11.5242">developed from scratch. </tspan><tspan x="0" y="27.657" font-family="'FiraMonoOT'" font-size="11.5242"> </tspan><tspan x="0" y="41.486" font-family="'FiraMonoOT'" font-size="11.5242">HTML5, CSS3, Sass, PHP. </tspan></text>
	<rect x="431.022" y="2339.802" fill="none" width="353.392" height="16.349"/>
	<text transform="matrix(1 0 0 1 431.0225 2348.5488)" font-family="'FiraMonoOT-Bold'" font-size="11.5242">www.blazingaudit.com</text>
	<rect x="455.025" y="2484.338" fill="none" width="276.581" height="47.378"/>
	<text transform="matrix(1 0 0 1 455.0254 2492.9814)" fill="#EF6F56" font-family="'FiraMonoOT'" font-size="11.5242">More details    &gt;</text>
	<rect x="430.5" y="2463.5" fill="none" stroke="#EF6F56" stroke-miterlimit="10" width="181" height="52"/>
	<rect x="161" y="2542" fill="#76D6D2" width="232" height="14"/>
</g>
<rect x="120" y="2613" fill="#FF6666" width="767" height="566"/>
<rect x="120" y="2866" fill="#E6E6E6" width="767" height="318"/>
<rect x="314.651" y="2656.172" fill="none" width="345.406" height="114.602"/>
<text transform="matrix(1 0 0 1 314.6509 2664.8154)"><tspan x="0" y="0" font-family="'FiraMonoOT'" font-size="11.5242">I am a web designer and web developer based in </tspan><tspan x="0" y="13.829" font-family="'FiraMonoOT'" font-size="11.5242">Brooklyn, NY. I write code in HTML5, CSS3, Sass, </tspan><tspan x="0" y="27.657" font-family="'FiraMonoOT'" font-size="11.5242">JavaScript, and jQuery.</tspan></text>
<rect x="157.954" y="2656.172" fill-rule="evenodd" clip-rule="evenodd" fill="none" width="292.587" height="80.67"/>
<text transform="matrix(1 0 0 1 157.9536 2673.665)"><tspan x="0" y="0" fill="#000333" font-family="'FiraMonoOT-Bold'" font-size="23.0484">MIRIAM </tspan><tspan x="0" y="27.658" fill="#000333" font-family="'FiraMonoOT-Bold'" font-size="23.0484">KENNEDY </tspan><tspan x="0" y="55.316" fill="#000333" font-family="'FiraMonoOT-Bold'" font-size="23.0484">NADLER</tspan></text>
<g>
	<rect x="314.491" y="2713.286" fill="none" width="293.227" height="76.188"/>
	<text transform="matrix(1 0 0 1 314.4907 2721.9297)" font-family="'FiraMonoOT'" font-size="11.5242">Feel free to email me with any inquiries.</text>
</g>
<rect x="157.5" y="2892.5" fill="none" stroke="#EF6F56" stroke-miterlimit="10" width="239" height="251"/>
<linearGradient id="SVGID_5_" gradientUnits="userSpaceOnUse" x1="161" y1="3018" x2="393" y2="3018">
	<stop  offset="0" style="stop-color:#FFA694"/>
	<stop  offset="0.0077" style="stop-color:#FFA794"/>
	<stop  offset="0.3283" style="stop-color:#FFBA91"/>
	<stop  offset="0.6561" style="stop-color:#FFC58F"/>
	<stop  offset="1" style="stop-color:#FFC98E"/>
</linearGradient>
<rect x="161" y="2896" fill="url(#SVGID_5_)" width="232" height="244"/>
<g>
	<rect x="183.883" y="2926.35" fill="none" width="188.229" height="40.336"/>
	<text transform="matrix(1 0 0 1 183.8828 2935.0967)" font-family="'FiraMonoOT-Bold'" font-size="11.5242">Blazing Audit</text>
</g>
<rect x="405" y="2728" width="56" height="2"/>
<rect x="430.5" y="2892.5" fill="none" stroke="#EF6F56" stroke-miterlimit="10" width="239" height="251"/>
<rect x="433" y="2896" fill="#76D6D2" width="232" height="245"/>
<circle fill="#F9E270" cx="511.339" cy="3024.327" r="64.019"/>
<g>
	<rect x="447.019" y="2921.229" fill="none" width="188.229" height="40.334"/>
	<text transform="matrix(1 0 0 1 447.019 2929.9756)" font-family="'FiraMonoOT-Bold'" font-size="11.5242">How Much Sunlight?</text>
</g>
<rect x="696.07" y="2975.969" fill="none" width="190.79" height="97.315"/>
<text transform="matrix(1 0 0 1 696.0698 2985.5146)" font-family="'MyriadPro-Regular'" font-size="13.4449">&lt;-- Animated</text>
<rect x="712.716" y="2993.574" fill="none" width="154.168" height="15.366"/>
<text transform="matrix(1 0 0 1 712.7158 3003.1201)" font-family="'MyriadPro-Regular'" font-size="13.4449">Slow animation</text>
<rect x="699.911" y="3024.327" fill="none" width="174.656" height="88.353"/>
<text transform="matrix(1 0 0 1 699.9111 3033.873)" font-family="'MyriadPro-Regular'" font-size="13.4449">Font color to gray on hover</text>
<rect x="118.488" y="39" fill="none" width="272" height="63"/>
<text transform="matrix(1 0 0 1 118.4878 47.5195)"><tspan x="0" y="0" fill="#FFFFFF" font-family="'MyriadPro-Regular'" font-size="12">Mocks </tspan><tspan x="0" y="10" fill="#FFFFFF" font-family="'MyriadPro-Regular'" font-size="12">_ </tspan><tspan x="0" y="20" fill="#FFFFFF" font-family="'MyriadPro-Regular'" font-size="12"> </tspan><tspan x="0" y="30" fill="#FFFFFF" font-family="'MyriadPro-Regular'" font-size="12">http://miri.codes</tspan></text>
<rect x="121" y="3242" fill="#EF6F56" width="766" height="566"/>
<rect x="120" y="3392" fill="#E6E6E6" width="767" height="423"/>
<rect x="315.291" y="3284.785" fill="none" width="345.406" height="114.602"/>
<text transform="matrix(1 0 0 1 315.291 3293.4287)"><tspan x="0" y="0" font-family="'FiraMonoOT'" font-size="11.5242">I am a web designer and web developer based in </tspan><tspan x="0" y="13.829" font-family="'FiraMonoOT'" font-size="11.5242">Brooklyn, NY. I write code in HTML5, CSS3, Sass, </tspan><tspan x="0" y="27.657" font-family="'FiraMonoOT'" font-size="11.5242">JavaScript, and jQuery.</tspan></text>
<rect x="158.594" y="3284.785" fill-rule="evenodd" clip-rule="evenodd" fill="none" width="292.587" height="80.67"/>
<text transform="matrix(1 0 0 1 158.5938 3302.2773)"><tspan x="0" y="0" font-family="'FiraMonoOT-Bold'" font-size="23.0484">MIRIAM </tspan><tspan x="0" y="27.658" font-family="'FiraMonoOT-Bold'" font-size="23.0484">KENNEDY </tspan><tspan x="0" y="55.316" font-family="'FiraMonoOT-Bold'" font-size="23.0484">NADLER</tspan></text>
<g>
	<rect x="315.131" y="3341.899" fill="none" width="293.227" height="76.188"/>
	<text transform="matrix(1 0 0 1 315.1309 3350.6465)"><tspan x="0" y="0" font-family="'FiraMonoOT'" font-size="11.5242">Feel free to </tspan><tspan x="89.889" y="0" font-family="'FiraMonoOT-Bold'" font-size="11.5242">email me</tspan><tspan x="145.206" y="0" font-family="'FiraMonoOT'" font-size="11.5242"> with any inquiries.</tspan></text>
</g>
<rect x="159.5" y="3420.5" fill="none" stroke="#EF6F56" stroke-miterlimit="10" width="239" height="251"/>
<linearGradient id="SVGID_6_" gradientUnits="userSpaceOnUse" x1="163" y1="3546" x2="395" y2="3546">
	<stop  offset="0" style="stop-color:#FFA694"/>
	<stop  offset="0.0077" style="stop-color:#FFA794"/>
	<stop  offset="0.3283" style="stop-color:#FFBA91"/>
	<stop  offset="0.6561" style="stop-color:#FFC58F"/>
	<stop  offset="1" style="stop-color:#FFC98E"/>
</linearGradient>
<rect x="163" y="3424" fill="url(#SVGID_6_)" width="232" height="244"/>
<g>
	<rect x="185.164" y="3454.447" fill="none" width="188.229" height="40.334"/>
	<text transform="matrix(1 0 0 1 185.1636 3463.1943)" font-family="'FiraMonoOT-Bold'" font-size="11.5242">Blazing Audit</text>
</g>
<rect x="256.229" y="3707.659" fill="none" width="276.581" height="47.378"/>
<text transform="matrix(1 0 0 1 256.2295 3716.3027)" fill="#EF6F56" font-family="'FiraMonoOT'" font-size="11.5242">See other sites</text>
<rect x="159.5" y="3687.5" fill="none" stroke="#EF6F56" stroke-miterlimit="10" width="239" height="51"/>
<rect x="178.342" y="3707.659" fill="none" width="81.626" height="40.333"/>
<text transform="matrix(1 0 0 1 178.3423 3716.3027)" fill="#EF6F56" font-family="'FiraMonoOT'" font-size="11.5242">&lt;</text>
<rect x="447.227" y="3494.781" fill="none" width="353.392" height="16.35"/>
<text transform="matrix(1 0 0 1 447.2266 3503.5273)" font-family="'FiraMonoOT-Bold'" font-size="11.5242">www.blazingaudit.com</text>
<rect x="447.227" y="3423.238" fill="none" width="256.4" height="143.086"/>
<text transform="matrix(1 0 0 1 447.2266 3431.8809)"><tspan x="0" y="0" font-family="'FiraMonoOT'" font-size="11.5242">A custom WordPress site designed and </tspan><tspan x="0" y="13.83" font-family="'FiraMonoOT'" font-size="11.5242">developed from scratch. </tspan><tspan x="0" y="27.658" font-family="'FiraMonoOT'" font-size="11.5242"> </tspan><tspan x="0" y="41.486" font-family="'FiraMonoOT'" font-size="11.5242">HTML5, CSS3, Sass, PHP. </tspan></text>
<rect x="446" y="3542" fill="#808080" width="137" height="137"/>
<rect x="618" y="3542" fill="#808080" width="234" height="233"/>
<rect x="446" y="3713" fill="#808080" width="137" height="102"/>
<rect x="120" y="3896" fill="#FF6666" width="767" height="567"/>
<rect x="120" y="4148" fill="#E6E6E6" width="768" height="319"/>
<rect x="314.404" y="3938.816" fill="none" width="345.856" height="114.752"/>
<text transform="matrix(1 0 0 1 314.4038 3947.4707)"><tspan x="0" y="0" font-family="'FiraMonoOT'" font-size="11.5392">I am a web designer and web developer based in </tspan><tspan x="0" y="13.848" font-family="'FiraMonoOT'" font-size="11.5392">Brooklyn, NY. I write code in HTML5, CSS3, Sass, </tspan><tspan x="0" y="27.695" font-family="'FiraMonoOT'" font-size="11.5392">JavaScript, and jQuery.</tspan></text>
<rect x="157.502" y="3938.816" fill-rule="evenodd" clip-rule="evenodd" fill="none" width="292.968" height="80.775"/>
<g>
	<rect x="314.244" y="3996.006" fill="none" width="293.609" height="76.287"/>
	<text transform="matrix(1 0 0 1 314.2437 4004.6602)" font-family="'FiraMonoOT'" font-size="11.5392">Feel free to email me with any inquiries.</text>
</g>
<rect x="157.5" y="4175.5" fill="none" stroke="#EF6F56" stroke-miterlimit="10" width="239" height="251"/>
<linearGradient id="SVGID_7_" gradientUnits="userSpaceOnUse" x1="161" y1="4301" x2="393" y2="4301">
	<stop  offset="0" style="stop-color:#FFA694"/>
	<stop  offset="0.0077" style="stop-color:#FFA794"/>
	<stop  offset="0.3283" style="stop-color:#FFBA91"/>
	<stop  offset="0.6561" style="stop-color:#FFC58F"/>
	<stop  offset="1" style="stop-color:#FFC98E"/>
</linearGradient>
<rect x="161" y="4179" fill="url(#SVGID_7_)" width="232" height="244"/>
<g>
	<rect x="436.688" y="4179.218" fill="none" width="188.474" height="40.388"/>
	<text transform="matrix(1 0 0 1 436.688 4187.9746)" font-family="'FiraMonoOT-Bold'" font-size="11.5392">Blazing Audit</text>
</g>
<rect x="405" y="4011" width="56" height="2"/>
<g>
	<rect x="441.816" y="4405.194" fill="none" width="303.225" height="72.44"/>
	<text transform="matrix(1 0 0 1 441.8164 4413.8486)" font-family="'FiraMonoOT'" font-size="11.5392">Visit Site</text>
</g>
<rect x="432.5" y="4393.5" fill="none" stroke="#EF6F56" stroke-miterlimit="10" width="90" height="34"/>
<g>
	<rect x="552.721" y="4405.194" fill="none" width="303.226" height="72.44"/>
	<text transform="matrix(1 0 0 1 552.7212 4413.8486)" font-family="'FiraMonoOT'" font-size="11.5392">See Process</text>
</g>
<rect x="543.5" y="4393.5" fill="none" stroke="#EF6F56" stroke-miterlimit="10" width="96" height="34"/>
<rect x="837.5" y="4145.5" fill="none" stroke="#EF6F56" stroke-miterlimit="10" width="50" height="322"/>
<circle fill="none" stroke="#EF6F56" stroke-miterlimit="10" cx="862.678" cy="4183.385" r="8.013"/>
<circle fill="none" stroke="#EF6F56" stroke-miterlimit="10" cx="862.678" cy="4223.131" r="8.013"/>
<circle fill="none" stroke="#EF6F56" stroke-miterlimit="10" cx="862.678" cy="4260.953" r="8.013"/>
<circle fill="none" stroke="#EF6F56" stroke-miterlimit="10" cx="862.678" cy="4301.341" r="8.013"/>
<rect x="181.863" y="3940.1" fill-rule="evenodd" clip-rule="evenodd" fill="none" width="292.968" height="80.774"/>
<text transform="matrix(1 0 0 1 181.8633 3957.6162)"><tspan x="0" y="0" font-family="'FiraMonoOT-Bold'" font-size="23.0785">MIRIAM </tspan><tspan x="0" y="27.693" font-family="'FiraMonoOT-Bold'" font-size="23.0785">KENNEDY </tspan><tspan x="0" y="55.388" font-family="'FiraMonoOT-Bold'" font-size="23.0785">NADLER</tspan></text>
<rect x="117" y="4605" fill="#E6E6E6" width="768" height="957"/>
<rect x="117" y="4605" fill="#FF6666" width="768" height="506"/>
<rect x="379" y="5011" fill="#E6E6E6" width="122" height="15"/>
<rect x="185" y="5027" fill="#E6E6E6" width="155" height="15"/>
<rect x="583" y="4862" fill="#E6E6E6" width="95" height="15"/>
<rect x="583" y="4879" fill="#E6E6E6" width="215" height="14"/>
<rect x="583" y="4845" fill="#E6E6E6" width="47" height="15"/>
<text transform="matrix(1 0 0 1 185.9146 4670.2812)" fill="#E6E6E6" font-family="'FiraMonoOT-Bold'" font-size="23.0785">MIRI.CODES</text>
<g>
	<rect x="185.915" y="4695.013" fill="none" width="262.518" height="81.416"/>
	<text transform="matrix(1 0 0 1 185.9146 4703.667)"><tspan x="0" y="0" fill="#222222" font-family="'FiraMonoOT'" font-size="11.5392">That’s me. My name is Miriam Nadler. </tspan><tspan x="0" y="16.668" fill="#222222" font-family="'FiraMonoOT'" font-size="11.5392">I code. I also design. I’m passionate </tspan><tspan x="0" y="33.336" fill="#222222" font-family="'FiraMonoOT'" font-size="11.5392">about typography, Sass, and </tspan><tspan x="0" y="50.004" fill="#222222" font-family="'FiraMonoOT'" font-size="11.5392">continuously redesigning my workflow.</tspan></text>
</g>
<text transform="matrix(1 0 0 1 185.9146 4829.2656)" fill="#222222" font-family="'FiraMonoOT-Bold'" font-size="23.0785">CODE</text>
<g>
	<text transform="matrix(1 0 0 1 378.876 4829.2656)" fill="#222222" font-family="'FiraMonoOT-Bold'" font-size="23.0785">DESIGN</text>
</g>
<text transform="matrix(1 0 0 1 580.8125 4829.2656)" fill="#222222" font-family="'FiraMonoOT-Bold'" font-size="23.0785">&amp;c.</text>
<g>
	<rect x="185.915" y="4848.549" fill="none" width="203.86" height="126.932"/>
	<text transform="matrix(1 0 0 1 185.9146 4857.2031)"><tspan x="0" y="0" fill="#222222" font-family="'FiraMonoOT'" font-size="11.5392">HTML5 </tspan><tspan x="0" y="16.668" fill="#222222" font-family="'FiraMonoOT'" font-size="11.5392">CSS3 + Sass </tspan><tspan x="0" y="33.336" fill="#222222" font-family="'FiraMonoOT'" font-size="11.5392">JavaScript + jQuery </tspan><tspan x="0" y="50.004" fill="#222222" font-family="'FiraMonoOT'" font-size="11.5392">PHP + WordPress </tspan></text>
</g>
<rect x="378.876" y="4850.472" fill="none" width="93.917" height="46.157"/>
<text transform="matrix(1 0 0 1 378.876 4859.126)"><tspan x="0" y="0" fill="#222222" font-family="'FiraMonoOT'" font-size="11.5392">Paper </tspan><tspan x="0" y="16.668" fill="#222222" font-family="'FiraMonoOT'" font-size="11.5392">Adobe </tspan><tspan x="0" y="33.336" fill="#222222" font-family="'FiraMonoOT'" font-size="11.5392">In-Browser</tspan></text>
<rect x="185.915" y="4930.605" fill="none" width="158.023" height="141.676"/>
<text transform="matrix(1 0 0 1 185.9146 4939.2598)"><tspan x="0" y="0" fill="#222222" font-family="'FiraMonoOT'" font-size="11.5392">This site was built </tspan><tspan x="0" y="16.668" fill="#222222" font-family="'FiraMonoOT'" font-size="11.5392">with HTML5, CSS3, </tspan><tspan x="0" y="33.336" fill="#222222" font-family="'FiraMonoOT'" font-size="11.5392">Sass, Bourbon, Neat, </tspan><tspan x="0" y="50.004" fill="#222222" font-family="'FiraMonoOT'" font-size="11.5392">JavaScript, Grunt, </tspan><tspan x="0" y="66.671" fill="#222222" font-family="'FiraMonoOT'" font-size="11.5392">Bower, and Yeoman. </tspan><tspan x="0" y="100.007" fill="#222222" font-family="'FiraMonoOT'" font-size="11.5392">See site github repo</tspan></text>
<line fill="none" stroke="#E6E6E6" stroke-miterlimit="10" x1="186" y1="4920.5" x2="255" y2="4920.5"/>
<g>
	<text transform="matrix(1 0 0 1 584.9795 4889.8965)" font-family="'FiraMonoOT'" font-size="11.5392">Email me</text>
</g>
<g>
	<g>
		<line fill="none" stroke="#FF6666" stroke-width="2" stroke-miterlimit="10" x1="647" y1="4879" x2="647" y2="4882"/>
		<line fill="none" stroke="#FF6666" stroke-width="2" stroke-miterlimit="10" x1="647" y1="4890" x2="647" y2="4893"/>
	</g>
</g>
<g>
	<rect x="653.574" y="4881.563" fill="none" width="193.603" height="75.005"/>
	<text transform="matrix(1 0 0 1 653.5742 4890.2178)" font-family="'FiraMonoOT'" font-size="11.5392">hello@miri.codes</text>
</g>
<g>
	<g>
		<line fill="none" stroke="#FF6666" stroke-width="2" stroke-miterlimit="10" x1="770" y1="4879" x2="770" y2="4882"/>
		<line fill="none" stroke="#FF6666" stroke-width="2" stroke-miterlimit="10" x1="770" y1="4890" x2="770" y2="4893"/>
	</g>
</g>
<polygon fill="#000333" points="782.429,4882.764 788.83,4886.46 782.429,4890.155 "/>
<g>
	<rect x="584.338" y="4848.549" fill="none" width="118.598" height="35.899"/>
	<text transform="matrix(1 0 0 1 584.3384 4857.2031)"><tspan x="0" y="0" font-family="'FiraMonoOT'" font-size="11.5392">GitHub</tspan><tspan x="0" y="16.668" font-family="'FiraMonoOT'" font-size="11.5392">StackOverflow</tspan></text>
</g>
<g>
	<rect x="378.876" y="4930.285" fill="none" width="169.563" height="99.686"/>
	<text transform="matrix(1 0 0 1 378.876 4938.9395)"><tspan x="0" y="0" fill="#222222" font-family="'FiraMonoOT'" font-size="11.5392">I designed this site </tspan><tspan x="0" y="16.668" fill="#222222" font-family="'FiraMonoOT'" font-size="11.5392">with layout sprints, </tspan><tspan x="0" y="33.336" fill="#222222" font-family="'FiraMonoOT'" font-size="11.5392">Illustrator mockups, and </tspan><tspan x="0" y="50.004" fill="#222222" font-family="'FiraMonoOT'" font-size="11.5392">in-browser adjustments. </tspan><tspan x="0" y="83.339" fill="#222222" font-family="'FiraMonoOT'" font-size="11.5392">See site sketches </tspan></text>
</g>
<rect x="379.197" y="4900.475" fill="none" width="187.192" height="73.082"/>
<text transform="matrix(1 0 0 1 379.1968 4909.1289)" fill="#222222" font-family="'FiraMonoOT'" font-size="11.5392">Responsive + User-Aware</text>
<line fill="none" stroke="#E6E6E6" stroke-miterlimit="10" x1="379" y1="4920.5" x2="448" y2="4920.5"/>
<text transform="matrix(1 0 0 1 185.9146 5163.9023)" fill="#222222" font-family="'FiraMonoOT-Bold'" font-size="23.0785">PROJECTS</text>
<rect x="568" y="4695" fill="#E6E6E6" width="248" height="9"/>
<rect x="562" y="4713" fill="#E6E6E6" width="254" height="9"/>
<rect x="645" y="4730" fill="#E6E6E6" width="171" height="9"/>
<rect x="674" y="4654" fill="#E6E6E6" width="142" height="22"/>
<linearGradient id="SVGID_8_" gradientUnits="userSpaceOnUse" x1="182" y1="5311" x2="376" y2="5311">
	<stop  offset="0" style="stop-color:#FFA694"/>
	<stop  offset="0.0077" style="stop-color:#FFA794"/>
	<stop  offset="0.3283" style="stop-color:#FFBA91"/>
	<stop  offset="0.6561" style="stop-color:#FFC58F"/>
	<stop  offset="1" style="stop-color:#FFC98E"/>
</linearGradient>
<rect x="182" y="5209" fill="url(#SVGID_8_)" width="194" height="204"/>
<g>
	<rect x="205.467" y="5238.959" fill="none" width="188.474" height="40.388"/>
	<text transform="matrix(1 0 0 1 205.4673 5247.7168)" fill="#222222" font-family="'FiraMonoOT-Bold'" font-size="11.5392">Blazing Audit</text>
</g>
<rect x="411" y="5211" fill="#76D6D2" width="191" height="202"/>
<circle fill="#F9E270" cx="475.287" cy="5320.131" r="52.81"/>
<rect x="291" y="5376" fill="#E6E6E6" width="67" height="25"/>
<rect x="294.258" y="5383.15" fill="none" width="110.579" height="46.155"/>
<text transform="matrix(1 0 0 1 294.2578 5391.8047)" fill="#222222" font-family="'FiraMonoOT'" font-size="11.5392">View site</text>
<rect x="205.467" y="5271.653" fill="none" width="158.023" height="141.677"/>
<text transform="matrix(1 0 0 1 205.4673 5280.3076)"><tspan x="0" y="0" fill="#222222" font-family="'FiraMonoOT'" font-size="11.5392">Design &amp; Development.</tspan><tspan x="0" y="33.336" fill="#222222" font-family="'FiraMonoOT'" font-size="11.5392">Custom WordPress site </tspan><tspan x="0" y="50.004" fill="#222222" font-family="'FiraMonoOT'" font-size="11.5392">for a small business.</tspan></text>
<g>
	<rect x="435.141" y="5236.374" fill="none" width="188.474" height="40.387"/>
	<text transform="matrix(1 0 0 1 435.1411 5245.1328)" fill="#222222" font-family="'FiraMonoOT-Bold'" font-size="11.5392">How Much Sunlight</text>
</g>
<rect x="435.301" y="5267.321" fill="none" width="158.023" height="141.677"/>
<text transform="matrix(1 0 0 1 435.3013 5275.9746)"><tspan x="0" y="0" fill="#222222" font-family="'FiraMonoOT'" font-size="11.5392">Design &amp; Development.</tspan><tspan x="0" y="33.336" fill="#222222" font-family="'FiraMonoOT'" font-size="11.5392">Calculates remaining </tspan><tspan x="0" y="50.004" fill="#222222" font-family="'FiraMonoOT'" font-size="11.5392">sunlight left in the </tspan><tspan x="0" y="66.672" fill="#222222" font-family="'FiraMonoOT'" font-size="11.5392">day.</tspan></text>
<rect x="523" y="5379" fill="#E6E6E6" width="66" height="25"/>
<rect x="525.684" y="5386.356" fill="none" width="110.579" height="46.154"/>
<text transform="matrix(1 0 0 1 525.6836 5395.0098)" fill="#222222" font-family="'FiraMonoOT'" font-size="11.5392">View site</text>
<rect x="636" y="5211" fill="#00FDA1" width="191" height="202"/>
<rect x="747" y="5377" fill="#E6E6E6" width="67" height="25"/>
<rect x="750.057" y="5384.433" fill="none" width="110.579" height="46.155"/>
<text transform="matrix(1 0 0 1 750.0571 5393.0859)" fill="#222222" font-family="'FiraMonoOT'" font-size="11.5392">View site</text>
<g>
	<rect x="654.856" y="5234.45" fill="none" width="188.474" height="40.388"/>
	<text transform="matrix(1 0 0 1 654.856 5243.208)" fill="#222222" font-family="'FiraMonoOT-Bold'" font-size="11.5392">mkopas.net</text>
</g>
<rect x="654.696" y="5271.653" fill="none" width="158.023" height="141.677"/>
<text transform="matrix(1 0 0 1 654.6963 5280.3076)"><tspan x="0" y="0" fill="#222222" font-family="'FiraMonoOT'" font-size="11.5392">Design &amp; Development</tspan><tspan x="0" y="33.336" fill="#222222" font-family="'FiraMonoOT'" font-size="11.5392">Portfolio site for a </tspan><tspan x="0" y="50.004" fill="#222222" font-family="'FiraMonoOT'" font-size="11.5392">game maker.</tspan></text>
<rect x="182" y="5449" fill="#A3A3A3" width="191" height="113"/>
<rect x="313" y="5449" fill="#B7B7B7" width="60" height="113"/>
<line fill="none" stroke="#E6E6E6" stroke-miterlimit="10" x1="205" y1="5258.5" x2="275" y2="5258.5"/>
<line fill="none" stroke="#E6E6E6" stroke-miterlimit="10" x1="436" y1="5259.5" x2="505" y2="5259.5"/>
<line fill="none" stroke="#E6E6E6" stroke-miterlimit="10" x1="655" y1="5256.5" x2="724" y2="5256.5"/>
<line fill="none" stroke="#E6E6E6" stroke-miterlimit="10" x1="202" y1="5493.5" x2="271" y2="5493.5"/>
<g>
	<rect x="204.185" y="5472.949" fill="none" width="188.474" height="40.388"/>
	<text transform="matrix(1 0 0 1 204.1851 5481.707)" fill="#222222" font-family="'FiraMonoOT-Bold'" font-size="11.5392">Modular Tone</text>
</g>
<rect x="205.467" y="5510.131" fill="none" width="158.023" height="44.875"/>
<text transform="matrix(1 0 0 1 205.4673 5518.7852)"><tspan x="0" y="0" fill="#222222" font-family="'FiraMonoOT'" font-size="11.5392">Design. </tspan><tspan x="0" y="33.336" fill="#222222" font-family="'FiraMonoOT'" font-size="11.5392">Exploring the  </tspan></text>
</svg>
